<svg xmlns="http://www.w3.org/2000/svg" id="prefix__luggage" width="22.779" height="40.198" viewBox="0 0 22.779 40.198">
    <defs>
        <style>
            .prefix__cls-1{fill:#414141}
        </style>
    </defs>
    <path id="prefix__Path_4606" d="M19.429 10.719h-4.02V3.35h1.34a.67.67 0 0 0 .67-.67V.67a.67.67 0 0 0-.67-.67H6.03a.67.67 0 0 0-.67.67v2.01a.67.67 0 0 0 .67.67h1.34v7.37H3.35A3.354 3.354 0 0 0 0 14.069v20.769a3.354 3.354 0 0 0 3.35 3.35v1.34a.67.67 0 0 0 .67.67H6.7a.67.67 0 0 0 .67-.67v-1.34h8.04v1.34a.67.67 0 0 0 .67.67h2.68a.67.67 0 0 0 .67-.67v-1.34a3.354 3.354 0 0 0 3.35-3.35V14.069a3.354 3.354 0 0 0-3.351-3.35zM6.7 1.34h9.379v.67H6.7zm2.01 2.01h5.36v7.37H8.709zM6.03 38.858H4.69v-.67h1.34zm12.059 0h-1.34v-.67h1.34zm3.35-4.02a2.01 2.01 0 0 1-2.01 2.01H3.35a2.01 2.01 0 0 1-2.01-2.01V14.069a2.01 2.01 0 0 1 2.01-2.01h16.079a2.01 2.01 0 0 1 2.01 2.01zm0 0" class="prefix__cls-1" data-name="Path 4606"/>
    <path id="prefix__Path_4607" d="M128.67 160a.67.67 0 0 0-.67.67v20.769a.67.67 0 0 0 1.34 0V160.67a.67.67 0 0 0-.67-.67zm0 0" class="prefix__cls-1" data-name="Path 4607" transform="translate(-117.281 -146.601)"/>
    <path id="prefix__Path_4608" d="M192.67 176a.67.67 0 0 0-.67.67v18.089a.67.67 0 0 0 1.34 0V176.67a.67.67 0 0 0-.67-.67zm0 0" class="prefix__cls-1" data-name="Path 4608" transform="translate(-175.921 -161.261)"/>
    <path id="prefix__Path_4609" d="M64.67 176a.67.67 0 0 0-.67.67v18.089a.67.67 0 0 0 1.34 0V176.67a.67.67 0 0 0-.67-.67zm0 0" class="prefix__cls-1" data-name="Path 4609" transform="translate(-58.64 -161.261)"/>
</svg>
