<svg xmlns="http://www.w3.org/2000/svg" width="40" height="29.999" viewBox="0 0 40 29.999">
    <defs>
        <style>
            .prefix__cls-1{fill:#414141}
        </style>
    </defs>
    <g id="prefix__Group_4264" data-name="Group 4264" transform="translate(-371 -309)">
        <g id="prefix___035---Baby-Scan" data-name="035---Baby-Scan" transform="translate(368.208 304.811)">
            <path id="prefix__Shape" d="M43.861 27.384L37.068 8.541a2.325 2.325 0 0 0-3.273-1.265c-4.986 2.656-14.626 2.642-19.595.009a2.325 2.325 0 0 0-3.28 1.288L4.129 28.091a2.3 2.3 0 0 0 .756 2.572c8.023 6.252 29.951 6.927 38.379-.815a2.285 2.285 0 0 0 .6-2.464zm-1.637 1.332c-7.853 7.21-28.945 6.539-36.394.735a.76.76 0 0 1-.248-.851l6.794-19.52a.786.786 0 0 1 1.106-.436c5.429 2.88 15.611 2.879 21.036-.011a.785.785 0 0 1 1.1.429l6.794 18.845a.748.748 0 0 1-.19.809z" class="prefix__cls-1" transform="translate(-1.208 -2.053)"/>
            <path id="prefix__Shape-2" d="M4.76 8.52h3.8a.76.76 0 0 0 0-1.52h-3.8a.76.76 0 0 0 0 1.52z" class="prefix__cls-1" data-name="Shape" transform="translate(-1.208 -2.051)"/>
            <path id="prefix__Shape-3" d="M7.8 43H4.76a.76.76 0 0 0 0 1.52H7.8a.76.76 0 0 0 0-1.52z" class="prefix__cls-1" data-name="Shape" transform="translate(-1.208 -10.332)"/>
            <path id="prefix__Shape-4" d="M53.8 43h-3.04a.76.76 0 0 0 0 1.52h3.04a.76.76 0 1 0 0-1.52z" class="prefix__cls-1" data-name="Shape" transform="translate(-11.769 -10.332)"/>
            <path id="prefix__Shape-5" d="M4.76 12.52h2.28a.76.76 0 1 0 0-1.52H4.76a.76.76 0 1 0 0 1.52z" class="prefix__cls-1" data-name="Shape" transform="translate(-1.208 -3.011)"/>
            <path id="prefix__Shape-6" d="M54.04 6h-2.28a.76.76 0 1 0 0 1.52h1.52v3.8h-1.52a.76.76 0 1 0 0 1.52h1.52v6.081a.76.76 0 1 0 1.52 0V6.76a.76.76 0 0 0-.76-.76z" class="prefix__cls-1" data-name="Shape" transform="translate(-12.009 -1.811)"/>
            <path id="prefix__Shape-7" d="M31.942 17.1a4.561 4.561 0 0 0-4.9 2.152 2.29 2.29 0 0 0-4.292 1.6l1.389 3.7-1.25.418a3.017 3.017 0 0 0-3.633-2.014l-2.5.638a2.331 2.331 0 0 0-.63 4.257c.951.572 1.7.276 2.834.007l.375 1.8a3.055 3.055 0 0 0 3 2.539c.324 0-.044.041 6.356-.943a3.823 3.823 0 0 0 3-2.477c1.1-3.873.493-2.448 2.014-3.573a4.566 4.566 0 0 0-1.763-8.104zm.857 6.892c-.608.445-1.377.532-1.8 1.678l-.746 2.636a2.28 2.28 0 0 1-1.789 1.453l-5.9.908a1.532 1.532 0 0 1-1.737-1.282l-.374-1.8a1.52 1.52 0 0 0-1.89-1.22l-1.046.277a.807.807 0 1 1-.385-1.567l2.5-.638a1.52 1.52 0 0 1 1.877 1.224l.352 2.11a.762.762 0 0 0 1.5-.254l-.174-1.04L24.62 26a1.52 1.52 0 0 0 .943-1.976l-1.388-3.7a.773.773 0 1 1 1.455-.524l.87 2.625a4.518 4.518 0 0 0 1.732 2.784.76.76 0 0 0 .912-1.216 3.04 3.04 0 1 1 3.654 0z" class="prefix__cls-1" data-name="Shape" transform="translate(-3.638 -4.244)"/>
        </g>
    </g>
</svg>
