<svg xmlns="http://www.w3.org/2000/svg" width="35.394" height="38" viewBox="0 0 35.394 38">
    <g id="prefix__Group_4264" data-name="Group 4264" transform="translate(-374 -305)">
        <path id="prefix__Shape" d="M32.322 12.534c-.633-4.3-1.761-7.062-3.4-8.233a2.888 2.888 0 0 0-1.229-.5c-.9-2.2-4.984-3.8-9.937-3.8S8.66 1.6 7.78 3.8c-3 .494-4.155 5.7-4.585 8.727A146.718 146.718 0 0 1 .1 28.019a1.2 1.2 0 0 0 .12.931 4.687 4.687 0 0 0 4.672 2.25c-.272.988-.545 1.545-.241 2.286C5.171 34.757 7.02 38 12.3 38a20.159 20.159 0 0 0 6.72-1.349c2.7 1.146 6 1.951 8.525.437a6.781 6.781 0 0 0 2.877-4.788c0-.26.082.108-.26-1.121a4.819 4.819 0 0 0 5.124-2.185 1.267 1.267 0 0 0 .127-.95 147.113 147.113 0 0 1-3.091-15.51zM17.755 1.267c4.877 0 8.442 1.634 8.816 3.167A5.7 5.7 0 0 1 22.017 9.5a4.433 4.433 0 0 0-2.617 2.02 11.216 11.216 0 0 0-.912-2.2 25.675 25.675 0 0 1 3.705-4.655 1.267 1.267 0 0 0-.925-2.134h-7.022a1.267 1.267 0 0 0-.925 2.128c1.267 1.324 4.015 4.364 4.826 7.131a14.6 14.6 0 0 0-5.965-2.29 4.309 4.309 0 0 1-3.1-1.9 4.129 4.129 0 0 1-.19-3.078c.253-1.577 3.882-3.255 8.867-3.255zm0 6.827A29.425 29.425 0 0 0 14.246 3.8h7.017a28.348 28.348 0 0 0-3.509 4.288zM5.823 33.016c-.133-.323.057-.462.545-2.426 3.534-13.414 1.3-18.639 1.2-18.854a.633.633 0 0 0-1.153.513c0 .051 2.09 5.029-1.172 17.645-2.533.38-3.566-.95-3.914-1.552a146.033 146.033 0 0 0 3.126-15.631C5.209 7.448 6.6 5.789 7.438 5.269c-.291 2.533 1.064 4.737 4.5 5.447 2.166.45 6.46 1.6 6.46 3.8v21.02c-9.364 3.281-11.986-1.083-12.575-2.52zM29.788 29.8c-3.331-12.888-.754-17.436-.728-17.474a.633.633 0 0 0-1.077-.665c-.12.2-2.97 5.016.671 18.823.152.576.31 1.159.488 1.767a5.333 5.333 0 0 1-2.274 3.762c-1.672.994-4.1.83-7.214-.456V15.783h1.381a1.9 1.9 0 1 0 0-1.267h-1.38c.355-2.115 1.267-3.4 2.692-3.8 3.059-.868 4.87-2.749 5.39-5.586.76.279 2.451 1.583 3.312 7.6a148.909 148.909 0 0 0 3.116 15.631c-.367.646-1.545 2.071-4.376 1.438zm-7.6-14.649a.633.633 0 1 1 .633.633.633.633 0 0 1-.633-.635z" transform="translate(373.941 305)" style="fill:#414141"/>
    </g>
</svg>
