<svg xmlns="http://www.w3.org/2000/svg" width="40" height="36" viewBox="0 0 40 36">
    <defs>
        <style>
            .prefix__cls-1{fill:#414141}
        </style>
    </defs>
    <g id="prefix__student" transform="translate(0 -2)">
        <g id="prefix__Page-1" transform="translate(0 2)">
            <g id="prefix___071---Portfolio" data-name="071---Portfolio">
                <path id="prefix__Shape" d="M35.333 5.333h-2.976l-2.381-3.571A2 2 0 0 0 28 0H12a2 2 0 0 0-1.976 1.762L7.643 5.333H4.667A4.672 4.672 0 0 0 0 10v22.667A3.337 3.337 0 0 0 3.333 36h33.334A3.337 3.337 0 0 0 40 32.667V10a4.672 4.672 0 0 0-4.667-4.667zM12 1.333h16a.667.667 0 0 1 0 1.333H12a.667.667 0 1 1 0-1.333zm-1.447 2.04A1.989 1.989 0 0 0 12 4h16a1.989 1.989 0 0 0 1.447-.627l1.307 1.961H9.245zm24.78 3.294a3.3 3.3 0 0 1 1.182.227A3.326 3.326 0 0 0 36 8.667v12a.667.667 0 0 1-.667.667H23.494a6.815 6.815 0 0 0 .492-2.2 4.133 4.133 0 0 0-3.719-4.459 3.965 3.965 0 0 0-3 1.071A4.017 4.017 0 0 0 16 18.667a6.874 6.874 0 0 0 .5 2.667H4.667A.667.667 0 0 1 4 20.667v-12a3.326 3.326 0 0 0-.515-1.773 3.3 3.3 0 0 1 1.182-.227zm-18 12a2.667 2.667 0 0 1 2.844-2.661 2.834 2.834 0 0 1 2.477 3.049 5.43 5.43 0 0 1-.237 1.333 1.994 1.994 0 0 0-1.751-1.055h-1.333a1.994 1.994 0 0 0-1.751 1.053 5.576 5.576 0 0 1-.249-1.719zm4 5.333h-2.666v-2.667a.667.667 0 0 1 .667-.667h1.333a.667.667 0 0 1 .667.667zM22 25.333v1.333h-4v-1.333zM18.667 28h2.667v2.667a1.333 1.333 0 0 1-2.667 0zm20 4.667a2 2 0 0 1-2 2H3.333a2 2 0 0 1-2-2V10a3.32 3.32 0 0 1 1.02-2.391 1.984 1.984 0 0 1 .314 1.057v12a2 2 0 0 0 2 2h12.4A3.557 3.557 0 0 1 17.333 24v.185a1.329 1.329 0 0 0-.667 1.148v1.333a1.329 1.329 0 0 0 .667 1.148v2.852a2.667 2.667 0 1 0 5.333 0v-2.851a1.329 1.329 0 0 0 .667-1.148v-1.334a1.329 1.329 0 0 0-.667-1.148V24a3.563 3.563 0 0 1 .267-1.333h12.4a2 2 0 0 0 2-2v-12a1.984 1.984 0 0 1 .314-1.057 3.32 3.32 0 0 1 1.02 2.39z" class="prefix__cls-1"/>
                <path id="prefix__Shape-2" d="M6.008 48H4.669a.669.669 0 0 0 0 1.338h1.339a.669.669 0 0 0 0-1.338z" class="prefix__cls-1" data-name="Shape" transform="translate(-1.323 -16.015)"/>
                <path id="prefix__Shape-3" d="M18.7 48h-8.03a.669.669 0 1 0 0 1.338h8.03a.669.669 0 0 0 0-1.338z" class="prefix__cls-1" data-name="Shape" transform="translate(-3.341 -16.015)"/>
                <path id="prefix__Shape-4" d="M54.008 48h-1.339a.669.669 0 1 0 0 1.338h1.338a.669.669 0 0 0 0-1.338z" class="prefix__cls-1" data-name="Shape" transform="translate(-17.354 -16.015)"/>
                <path id="prefix__Shape-5" d="M44.7 48h-8.03a.669.669 0 0 0 0 1.338h8.03a.669.669 0 1 0 0-1.338z" class="prefix__cls-1" data-name="Shape" transform="translate(-12.028 -16.015)"/>
            </g>
        </g>
    </g>
</svg>
