<svg xmlns="http://www.w3.org/2000/svg" width="39.979" height="40" viewBox="0 0 39.979 40">
    <defs>
        <style>
            .prefix__cls-1{fill:#414141}
        </style>
    </defs>
    <g id="prefix__snack_1_" data-name="snack (1)" transform="translate(.001)">
        <path id="prefix__Path_4613" d="M71.38 290.443a1.062 1.062 0 0 0-1.472.012l-1.618 1.617a1.062 1.062 0 0 0-.31.759 1.016 1.016 0 0 0 .31.725l1.606 1.605a1.025 1.025 0 0 0 .737.322h.014a1.06 1.06 0 0 0 .745-.31l1.617-1.617a1.067 1.067 0 0 0 0-1.485zm-.733 3.588l-1.213-1.213 1.213-1.219 1.219 1.219zm0 0" class="prefix__cls-1" data-name="Path 4613" transform="translate(-62.67 -267.484)"/>
        <path id="prefix__Path_4614" d="M154.564 333.253a.507.507 0 0 0-.06-.12 1.041 1.041 0 0 0-.08-.1.685.685 0 0 0-.22-.14.665.665 0 0 0-.507 0 .688.688 0 0 0-.22.14.669.669 0 0 0 .947.947 1.008 1.008 0 0 0 .08-.1.5.5 0 0 0 .06-.12.424.424 0 0 0 .04-.12.677.677 0 0 0 0-.267.431.431 0 0 0-.04-.12zm0 0" class="prefix__cls-1" data-name="Path 4614" transform="translate(-141.307 -306.839)"/>
        <path id="prefix__Path_4615" d="M214.335 273.639a.425.425 0 0 0-.04-.12.5.5 0 0 0-.06-.12 1 1 0 0 0-.08-.1.683.683 0 0 0-.22-.14.665.665 0 0 0-.507 0 .683.683 0 0 0-.22.14.669.669 0 0 0 .947.947 1.046 1.046 0 0 0 .08-.1.509.509 0 0 0 .06-.12.43.43 0 0 0 .04-.12.677.677 0 0 0 0-.267zm0 0" class="prefix__cls-1" data-name="Path 4615" transform="translate(-196.372 -251.772)"/>
        <path id="prefix__Path_4616" d="M111.269 257.372a.7.7 0 0 0 .473-.193 1.1 1.1 0 0 0 .08-.1.5.5 0 0 0 .06-.12.419.419 0 0 0 .04-.12.664.664 0 0 0 0-.266.42.42 0 0 0-.04-.12.5.5 0 0 0-.06-.12 1.054 1.054 0 0 0-.08-.1.684.684 0 0 0-.22-.14.666.666 0 0 0-.507 0 .68.68 0 0 0-.22.14.666.666 0 0 0 .473 1.14zm0 0" class="prefix__cls-1" data-name="Path 4616" transform="translate(-101.959 -236.038)"/>
        <path id="prefix__Path_4617" d="M77.763 392.986a.518.518 0 0 0-.06-.12 1.063 1.063 0 0 0-.08-.1.691.691 0 0 0-.22-.14.669.669 0 0 0-.507 0 .7.7 0 0 0-.22.14.669.669 0 0 0 .947.947 1.059 1.059 0 0 0 .08-.1.512.512 0 0 0 .06-.12.417.417 0 0 0 .04-.12.665.665 0 0 0 0-.267.417.417 0 0 0-.04-.12zm0 0" class="prefix__cls-1" data-name="Path 4617" transform="translate(-70.507 -361.906)"/>
        <path id="prefix__Path_4618" d="M38.643 28.9V26a1.333 1.333 0 0 0-1.333-1.333H26.643v-2.761a2.667 2.667 0 1 0-1.333 0v2.762h-3.842l.975-8.726A2 2 0 0 0 21.977 12h-.7a9.27 9.27 0 0 0-1.9-5.006.679.679 0 0 0-.052-.067A9.383 9.383 0 0 0 16.649 4.6l.178-1.047a2.661 2.661 0 0 1 2.629-2.219h5.854a.667.667 0 1 0 0-1.334h-5.854a3.992 3.992 0 0 0-3.946 3.329L15.4 4a9.213 9.213 0 0 0-1.6-.477h-.022A9.312 9.312 0 0 0 2.677 12h-.7a2 2 0 0 0-.464 3.94l2.307 20.8.167 1.478A2 2 0 0 0 5.976 40H37.31a1.512 1.512 0 0 0 1.333-1.667V33.1a2.319 2.319 0 0 0 0-4.2zm-14-9.567a1.333 1.333 0 1 1 1.333 1.333 1.334 1.334 0 0 1-1.333-1.332zm12.667 9.334H15.976V26H37.31zm0 6h-9.333a.608.608 0 0 0-.124.025.711.711 0 0 0-.11.017L22.71 36.6l-3.058-1.834-.043-.015a.618.618 0 0 0-.125-.045.684.684 0 0 0-.133-.027c-.015 0-.029-.009-.044-.009h-3.331v-1.336H37.31zm-24.667-2.119l-1.214-1.214 1.217-1.217.684.684c-.006.067-.021.133-.021.2a2.288 2.288 0 0 0 .133.749zm3.333-7.881A1.333 1.333 0 0 0 14.643 26v2.9a2.332 2.332 0 0 0-.751.573l-.527-.526a1.066 1.066 0 0 0-1.461.021l-1.62 1.62a1.043 1.043 0 0 0-.309.756 1.015 1.015 0 0 0 .31.727l1.609 1.61a1.026 1.026 0 0 0 .736.319h.011a1.041 1.041 0 0 0 .743-.31l.845-.845a2.286 2.286 0 0 0 .41.254V36H5.082L3.26 19.595a20.216 20.216 0 0 1 8.223-.718l.588.067.775.085-.486 2.862a.667.667 0 0 0 .546.769.655.655 0 0 0 .112.009.667.667 0 0 0 .657-.555l.5-2.939c2.406.257 4.647.462 6.512.473l-.559 5.021zM2.861 16h10.5l-.291 1.711-.851-.095-.589-.067a22.014 22.014 0 0 0-8.52.695zm17.972 2.311a64.205 64.205 0 0 1-6.436-.456L14.71 16h6.379zM19.943 12h-4.55l.458-2.7a3.614 3.614 0 0 0 .459.032 3.655 3.655 0 0 0 2.43-.921A7.937 7.937 0 0 1 19.943 12zm-2.016-4.661A2.309 2.309 0 0 1 16.31 8a2.227 2.227 0 0 1-.234-.024l.334-1.964a8.048 8.048 0 0 1 1.518 1.326zm-3.113.1a2.319 2.319 0 0 1-.837-1.775 2.292 2.292 0 0 1 .115-.707 7.948 7.948 0 0 1 1.081.377zm-2.837-2.772a7.869 7.869 0 0 1 .8.041 3.654 3.654 0 0 0 1.795 4.185L14.043 12H4.011a8.007 8.007 0 0 1 7.966-7.333zm-10 8.667h20a.667.667 0 0 1 0 1.333h-20a.667.667 0 1 1 0-1.333zM5.31 38.072l-.08-.739h9.413v1a2.177 2.177 0 0 0 .026.333H5.976a.667.667 0 0 1-.667-.595zm32 .262a.638.638 0 0 1-.08.333H16.056a.645.645 0 0 1-.08-.333V36h3.149l3.175 1.9a.67.67 0 0 0 .577.053L28.1 36h9.21zM37.643 32h-22a1 1 0 0 1 0-2h22a1 1 0 0 1 0 2zm0 0" class="prefix__cls-1" data-name="Path 4618"/>
    </g>
</svg>
