<svg xmlns="http://www.w3.org/2000/svg" width="47.091" height="28.826" viewBox="0 0 47.091 28.826">
    <defs>
        <style>
            .prefix__cls-1{fill:#414141;stroke:#414141;stroke-width:.3px}
        </style>
    </defs>
    <g id="prefix__Group_4274" data-name="Group 4274" transform="translate(-720.846 -419.04)">
        <g id="prefix__thumb-up" transform="translate(744.008 419.213)">
            <path id="prefix__Path_4610" d="M34.529 231.89a.4.4 0 0 0 .4-.4v-.79a.4.4 0 0 0-.792 0v.792a.4.4 0 0 0 .392.398zm0 0" class="prefix__cls-1" data-name="Path 4610" transform="translate(-32.549 -219.62)"/>
            <path id="prefix__Path_4611" d="M34.529 286.257a.4.4 0 0 0 .4-.4V281.9a.4.4 0 0 0-.792 0v3.961a.4.4 0 0 0 .392.396zm0 0" class="prefix__cls-1" data-name="Path 4611" transform="translate(-32.549 -268.442)"/>
            <path id="prefix__Path_4612" d="M1.44 19.9h2.917c.4 0 .448.089.546.249a1.366 1.366 0 0 0 .156.218 7.032 7.032 0 0 0 4.735 1.909h8.822a2.118 2.118 0 0 0 1.938-1.386 1.98 1.98 0 0 0-.309-1.782h.307a2.118 2.118 0 0 0 1.938-1.386 1.976 1.976 0 0 0-.436-1.928 2.062 2.062 0 0 0 1.228-1.241 1.978 1.978 0 0 0-.493-1.994c-.022-.022-.049-.04-.072-.059a1.929 1.929 0 0 0 .468-3.11 1.967 1.967 0 0 0-1.4-.581h-7.162a.126.126 0 0 1-.112-.183c.057-.114.1-.206.122-.236a6.2 6.2 0 0 1 1.555-1.626l.173-.139c.158-.13.326-.249.493-.37 1.414-1.018 3.507-3.089 3.507-4.308A1.9 1.9 0 0 0 19.29.194a1.5 1.5 0 0 0-1.666.441 17.682 17.682 0 0 1-5.3 3.26 17.951 17.951 0 0 0-5.7 3.59 6.1 6.1 0 0 1-.745.694 4.366 4.366 0 0 1-2.72.627H1.44A1.442 1.442 0 0 0 0 10.246v8.21A1.442 1.442 0 0 0 1.44 19.9zm18.06-.447a1.2 1.2 0 0 1 .3 1.207 1.334 1.334 0 0 1-1.18.821h-3.127a1.335 1.335 0 0 1-1.178-.821 1.2 1.2 0 0 1 .294-1.207 1.178 1.178 0 0 1 .839-.348h3.214a1.178 1.178 0 0 1 .839.348zm2.229-1.962a1.335 1.335 0 0 1-1.179.821H15.1a1.335 1.335 0 0 1-1.178-.821 1.2 1.2 0 0 1 .294-1.207 1.178 1.178 0 0 1 .839-.348H20.6a1.179 1.179 0 0 1 .84.348 1.2 1.2 0 0 1 .294 1.207zm.792-3.169a1.334 1.334 0 0 1-1.179.821h-5.453a1.334 1.334 0 0 1-1.178-.821A1.2 1.2 0 0 1 15 13.115a1.178 1.178 0 0 1 .839-.349h5.545a1.18 1.18 0 0 1 .84.349 1.2 1.2 0 0 1 .294 1.207zM17.428 9.6h4.357a1.18 1.18 0 0 1 .84.348 1.2 1.2 0 0 1 .293 1.207 1.334 1.334 0 0 1-1.178.821h-4.663a1.334 1.334 0 0 1-1.178-.821 1.2 1.2 0 0 1 .294-1.207 1.178 1.178 0 0 1 .839-.348zm-16.636.646A.649.649 0 0 1 1.44 9.6h1.722a5.083 5.083 0 0 0 3.19-.783 6.711 6.711 0 0 0 .85-.787 17.109 17.109 0 0 1 5.456-3.416 18.524 18.524 0 0 0 5.526-3.418c.282-.282.552-.373.8-.269a1.138 1.138 0 0 1 .581 1.019c0 .708-1.545 2.489-3.178 3.665-.179.129-.356.258-.528.4l-.172.139a6.924 6.924 0 0 0-1.723 1.812c-.022.034-.086.156-.164.31a.919.919 0 0 0 .823 1.328h.825a1.98 1.98 0 0 0-.309 1.782 1.733 1.733 0 0 0 .36.628 1.981 1.981 0 0 0-1.549 2.541 1.783 1.783 0 0 0 .439.715 1.969 1.969 0 0 0-1.23 2.453 2 2 0 0 0 .961 1.116c-.023.021-.05.037-.072.059a1.978 1.978 0 0 0-.493 1.994 1.719 1.719 0 0 0 .33.594h-4.09a6.336 6.336 0 0 1-4.152-1.653.582.582 0 0 1-.063-.094 1.225 1.225 0 0 0-1.223-.635H1.441a.649.649 0 0 1-.648-.648zm0 0" class="prefix__cls-1" data-name="Path 4612" transform="translate(0 -.101)"/>
        </g>
        <g id="prefix__thumb-up-2" data-name="thumb-up" transform="translate(721 425.521)">
            <path id="prefix__Path_4610-2" d="M34.529 230.305a.4.4 0 0 0-.4.4v.792a.4.4 0 0 0 .792 0v-.797a.4.4 0 0 0-.392-.395zm0 0" class="prefix__cls-1" data-name="Path 4610" transform="translate(-12.734 -220.403)"/>
            <path id="prefix__Path_4611-2" d="M34.529 281.5a.4.4 0 0 0-.4.4v3.961a.4.4 0 0 0 .792 0V281.9a.4.4 0 0 0-.392-.4zm0 0" class="prefix__cls-1" data-name="Path 4611" transform="translate(-12.734 -277.147)"/>
            <path id="prefix__Path_4612-2" d="M22.335 2.478h-2.917c-.4 0-.448-.089-.546-.249a1.366 1.366 0 0 0-.156-.218A7.032 7.032 0 0 0 13.981.1H5.159a2.118 2.118 0 0 0-1.938 1.387A1.98 1.98 0 0 0 3.53 3.27h-.307a2.118 2.118 0 0 0-1.937 1.386 1.976 1.976 0 0 0 .436 1.928A2.062 2.062 0 0 0 .494 7.825a1.978 1.978 0 0 0 .492 1.993c.022.022.049.04.072.059a1.929 1.929 0 0 0-.468 3.11 1.967 1.967 0 0 0 1.4.581h7.163a.126.126 0 0 1 .112.183c-.057.114-.1.206-.122.236a6.2 6.2 0 0 1-1.555 1.626l-.173.139c-.158.13-.326.249-.493.37-1.413 1.018-3.506 3.09-3.506 4.308a1.9 1.9 0 0 0 1.069 1.75 1.5 1.5 0 0 0 1.666-.441 17.682 17.682 0 0 1 5.3-3.26 17.951 17.951 0 0 0 5.7-3.59 6.1 6.1 0 0 1 .745-.694 4.366 4.366 0 0 1 2.72-.627h1.721a1.442 1.442 0 0 0 1.44-1.44v-8.21a1.442 1.442 0 0 0-1.44-1.44zm-18.062.443a1.2 1.2 0 0 1-.294-1.207 1.334 1.334 0 0 1 1.18-.821h3.123a1.335 1.335 0 0 1 1.178.821 1.2 1.2 0 0 1-.294 1.207 1.178 1.178 0 0 1-.839.348H5.114a1.178 1.178 0 0 1-.839-.348zM2.044 4.883a1.335 1.335 0 0 1 1.179-.821h5.456a1.335 1.335 0 0 1 1.178.821 1.2 1.2 0 0 1-.294 1.207 1.178 1.178 0 0 1-.839.348H3.178a1.179 1.179 0 0 1-.84-.348 1.2 1.2 0 0 1-.294-1.207zm-.792 3.169a1.334 1.334 0 0 1 1.179-.821h5.455a1.334 1.334 0 0 1 1.178.821 1.2 1.2 0 0 1-.294 1.207 1.178 1.178 0 0 1-.839.349H2.386a1.18 1.18 0 0 1-.84-.349 1.2 1.2 0 0 1-.294-1.207zm5.1 4.724H1.99a1.18 1.18 0 0 1-.84-.348 1.2 1.2 0 0 1-.293-1.207 1.334 1.334 0 0 1 1.178-.821H6.7a1.334 1.334 0 0 1 1.178.821 1.2 1.2 0 0 1-.294 1.207 1.178 1.178 0 0 1-.839.348zm16.636-.648a.649.649 0 0 1-.648.648h-1.726a5.083 5.083 0 0 0-3.19.783 6.71 6.71 0 0 0-.85.787 17.109 17.109 0 0 1-5.456 3.416 18.524 18.524 0 0 0-5.526 3.418c-.282.282-.552.373-.8.269a1.138 1.138 0 0 1-.581-1.019c0-.708 1.545-2.489 3.178-3.665.179-.129.356-.258.528-.4l.172-.139a6.924 6.924 0 0 0 1.723-1.812c.022-.034.086-.156.164-.31a.919.919 0 0 0-.821-1.331h-.828a1.98 1.98 0 0 0 .309-1.782 1.733 1.733 0 0 0-.36-.628 1.981 1.981 0 0 0 1.549-2.538 1.783 1.783 0 0 0-.439-.715 1.969 1.969 0 0 0 1.23-2.453 2 2 0 0 0-.961-1.117c.023-.021.05-.037.072-.059a1.978 1.978 0 0 0 .493-1.994 1.719 1.719 0 0 0-.33-.594h4.091a6.336 6.336 0 0 1 4.152 1.653.583.583 0 0 1 .063.094 1.225 1.225 0 0 0 1.223.629h2.917a.649.649 0 0 1 .648.648zm0 0" class="prefix__cls-1" data-name="Path 4612" transform="translate(0 -.101)"/>
        </g>
    </g>
</svg>
