<svg xmlns="http://www.w3.org/2000/svg" id="prefix__student" width="40" height="40" viewBox="0 0 40 40">
    <g id="prefix__Group_4279" data-name="Group 4279">
        <path id="prefix__Path_4619" d="M38.667 34.667V30a2 2 0 0 0-2-2h-3.488a5.317 5.317 0 0 0-2.458-2.591l-4.7-3.422a.657.657 0 0 0-.092-.056 1.478 1.478 0 0 1-.82-1.325v-1.961c.126-.155.262-.336.411-.547.224-.317.422-.561.6-.78a5.484 5.484 0 0 0 1.036-1.69 2.427 2.427 0 0 0 1.392-2.194V11.08a2.413 2.413 0 0 0-.595-1.58V6.374a6.467 6.467 0 0 0-1.811-4.28A8.074 8.074 0 0 0 20.167 0c-2.667 0-4.655.708-5.916 2.106a5.609 5.609 0 0 0-1.378 3.989v3.113a2.4 2.4 0 0 0-.593 1.572v2.36a2.437 2.437 0 0 0 .889 1.878 12.567 12.567 0 0 0 2.057 4.246v1.923a1.472 1.472 0 0 1-.773 1.3L9.2 25.355A5.385 5.385 0 0 0 6.811 28H3.333a2 2 0 0 0-2 2v4.667A1.335 1.335 0 0 0 0 36v.667A3.337 3.337 0 0 0 3.333 40h11.334a3.321 3.321 0 0 0 2.667-1.354 3.3 3.3 0 0 0 5.333 0A3.321 3.321 0 0 0 25.333 40h11.334A3.337 3.337 0 0 0 40 36.667V36a1.335 1.335 0 0 0-1.333-1.333zM9.84 26.525l5.25-2.865a2.8 2.8 0 0 0 1.47-2.474v-2.153a.666.666 0 0 0-.154-.426 11.215 11.215 0 0 1-2-4.131.67.67 0 0 0-.283-.406 1.117 1.117 0 0 1-.513-.93v-2.36a1.079 1.079 0 0 1 .369-.8.666.666 0 0 0 .224-.5L14.2 6a4.316 4.316 0 0 1 1.049-3.016c1-1.1 2.653-1.652 4.914-1.652a6.825 6.825 0 0 1 5.017 1.686 5.192 5.192 0 0 1 1.44 3.349v3.406a.666.666 0 0 0 .224.5 1.086 1.086 0 0 1 .37.808v2.353a1.106 1.106 0 0 1-.787 1.051.666.666 0 0 0-.433.429 4.114 4.114 0 0 1-.908 1.562c-.195.24-.411.506-.656.853a7.515 7.515 0 0 1-.487.629.666.666 0 0 0-.169.443v2.207a2.8 2.8 0 0 0 1.5 2.489l4.706 3.424a.677.677 0 0 0 .1.058A3.994 3.994 0 0 1 31.653 28h-4.986A7.337 7.337 0 0 0 20 32.3a7.338 7.338 0 0 0-6.667-4.3H8.317a4.049 4.049 0 0 1 1.523-1.475zm6.827 10.141a2 2 0 0 1-2 2H3.333a2 2 0 0 1-2-2V36h15.334v.667zm-14-2V34h14a.667.667 0 1 0 0-1.333h-14V32H14a.667.667 0 1 0 0-1.333H2.667V30a.667.667 0 0 1 .667-.667h10a6.008 6.008 0 0 1 5.966 5.334H2.667zm19.333 2a2 2 0 0 1-4 0V36h4zm-1.3-2a6.008 6.008 0 0 1 5.963-5.333h10a.667.667 0 0 1 .667.667v.667H26A.667.667 0 0 0 26 32h11.333v.667h-14a.667.667 0 1 0 0 1.333h14v.667H20.7zm17.963 2a2 2 0 0 1-2 2h-11.33a2 2 0 0 1-2-2V36h15.334v.667z" data-name="Path 4619" style="fill:#414141"/>
    </g>
</svg>
