<svg xmlns="http://www.w3.org/2000/svg" width="40" height="39.946" viewBox="0 0 40 39.946">
    <g id="prefix__Group_4264" data-name="Group 4264" transform="translate(-371 -304)">
        <g id="prefix__Page-1" transform="translate(370.07 304.012)">
            <g id="prefix___006---Family-Tree" data-name="006---Family-Tree" transform="translate(.93 -.012)">
                <path id="prefix__Shape" d="M24.187 21.771c1.79-1.149 3.808-2.191 5.945-3.294l1.274-.661a6 6 0 1 0-2.363-3.706c-2.422 1.742-4.533 2.86-5.436 2.86a.142.142 0 0 1-.132-.066c-.4-.493-.4-2.318 0-4.5a5.991 5.991 0 1 0-5.061 0c.4 2.178.4 4 0 4.5a.142.142 0 0 1-.132.066c-.9 0-3.014-1.118-5.436-2.86a6.014 6.014 0 1 0-2.363 3.706l1.274.661c2.137 1.1 4.156 2.145 5.945 3.294a3.4 3.4 0 0 1 .844.7.96.96 0 0 1 .087 1.13 1.109 1.109 0 0 1-.812.464 9.575 9.575 0 0 1-4.484-1 5.988 5.988 0 1 0 .793 4.571c4 .142 4.148 1.919 4.152 1.983v5.321a1.9 1.9 0 0 1-2 2 4.164 4.164 0 0 0-3.974 3.167.665.665 0 0 0 .79.811c2.209-.49 6.191-.951 7.474-.1l.013.006a.655.655 0 0 0 .2.083.623.623 0 0 0 .064.009.677.677 0 0 0 .089.013.666.666 0 0 0 .1-.012h.038a.66.66 0 0 0 .213-.087c.007 0 .014 0 .02-.008 1.282-.854 5.265-.394 7.474.1a.671.671 0 0 0 .141.016h.007a.653.653 0 0 0 .157-.019c.01 0 .016-.009.025-.012a.656.656 0 0 0 .171-.081c.016-.01.034-.016.049-.027a.661.661 0 0 0 .16-.178c.011-.018.015-.039.024-.058a.652.652 0 0 0 .06-.146v-.021a2.043 2.043 0 0 0 0-.265v-.02a4.163 4.163 0 0 0-3.973-3.167 1.9 1.9 0 0 1-2-2v-5.31c0-.079.153-1.856 4.152-2a6 6 0 1 0 .793-4.571 9.588 9.588 0 0 1-4.488 1 1.106 1.106 0 0 1-.809-.465.96.96 0 0 1 .09-1.131 3.39 3.39 0 0 1 .845-.696zm7.632-5.329a3.309 3.309 0 0 1 1.76-1.842 2.583 2.583 0 0 0 2.69 0 3.309 3.309 0 0 1 1.759 1.846 4.631 4.631 0 0 1-6.209-.004zm3.1-2.8a1.331 1.331 0 1 1 1.331-1.331 1.331 1.331 0 0 1-1.326 1.332zm0-5.325a4.651 4.651 0 0 1 4.03 6.987 4.621 4.621 0 0 0-1.715-1.7 2.629 2.629 0 0 0 .347-1.289 2.663 2.663 0 0 0-5.325 0 2.629 2.629 0 0 0 .347 1.289 4.621 4.621 0 0 0-1.715 1.7 4.651 4.651 0 0 1 4.03-6.987zm-17.078 2.134A3.309 3.309 0 0 1 19.6 8.606a2.583 2.583 0 0 0 2.69 0 3.309 3.309 0 0 1 1.759 1.846 4.63 4.63 0 0 1-6.208-.001zm3.1-2.8a1.331 1.331 0 1 1 1.331-1.331 1.331 1.331 0 0 1-1.326 1.332zm0-5.325a4.651 4.651 0 0 1 4.03 6.987 4.621 4.621 0 0 0-1.715-1.7 2.629 2.629 0 0 0 .347-1.289 2.663 2.663 0 1 0-5.325 0 2.629 2.629 0 0 0 .347 1.289 4.621 4.621 0 0 0-1.715 1.7 4.651 4.651 0 0 1 4.03-6.987zM6.967 8.318A4.651 4.651 0 0 1 11 15.305a4.621 4.621 0 0 0-1.715-1.7 2.629 2.629 0 0 0 .347-1.289 2.663 2.663 0 0 0-5.325 0 2.629 2.629 0 0 0 .345 1.284 4.621 4.621 0 0 0-1.715 1.7 4.651 4.651 0 0 1 4.03-6.987zm-1.331 3.994a1.331 1.331 0 1 1 1.331 1.331 1.331 1.331 0 0 1-1.331-1.331zm-1.773 4.13A3.309 3.309 0 0 1 5.622 14.6a2.583 2.583 0 0 0 2.69 0 3.309 3.309 0 0 1 1.759 1.846 4.631 4.631 0 0 1-6.208-.004zM8.3 21.631a4.651 4.651 0 0 1 4.03 6.987 4.621 4.621 0 0 0-1.715-1.7 2.629 2.629 0 0 0 .347-1.289 2.663 2.663 0 0 0-5.325 0 2.629 2.629 0 0 0 .347 1.289 4.621 4.621 0 0 0-1.715 1.7A4.651 4.651 0 0 1 8.3 21.631zm-1.333 3.993A1.331 1.331 0 1 1 8.3 26.956a1.331 1.331 0 0 1-1.333-1.332zm-1.773 4.13a3.309 3.309 0 0 1 1.759-1.846 2.583 2.583 0 0 0 2.69 0 3.309 3.309 0 0 1 1.757 1.847 4.63 4.63 0 0 1-6.206 0zm25.294 0a3.309 3.309 0 0 1 1.759-1.846 2.583 2.583 0 0 0 2.69 0 3.309 3.309 0 0 1 1.763 1.847 4.631 4.631 0 0 1-6.212 0zm3.1-2.8a1.331 1.331 0 1 1 1.331-1.331 1.331 1.331 0 0 1-1.326 1.333zm0-5.325a4.651 4.651 0 0 1 4.03 6.987 4.621 4.621 0 0 0-1.715-1.7 2.629 2.629 0 0 0 .347-1.289 2.663 2.663 0 0 0-5.325 0 2.629 2.629 0 0 0 .347 1.289 4.621 4.621 0 0 0-1.715 1.7 4.651 4.651 0 0 1 4.03-6.987zM22.136 24.32a2.411 2.411 0 0 0 1.771 1.067 5.631 5.631 0 0 0 .684.04 9.884 9.884 0 0 0 3.209-.647 5.965 5.965 0 0 0-.2 1.51v.023c-5.248.235-5.326 3.175-5.326 3.305v5.325a3.209 3.209 0 0 0 3.328 3.328 2.573 2.573 0 0 1 2.152 1.094c-1.839-.308-5.06-.672-6.807.147-1.746-.823-4.978-.455-6.818-.147a2.577 2.577 0 0 1 2.154-1.094 3.209 3.209 0 0 0 3.328-3.328v-5.325c0-.13-.078-3.071-5.326-3.305v-.023a5.962 5.962 0 0 0-.2-1.509 9.878 9.878 0 0 0 3.21.646 5.6 5.6 0 0 0 .682-.04 2.412 2.412 0 0 0 1.774-1.066 2.272 2.272 0 0 0-.164-2.676 4.615 4.615 0 0 0-1.168-.993c-1.842-1.183-3.888-2.239-6.054-3.357l-.845-.438a6 6 0 0 0 .9-1.41c1.77 1.247 4.348 2.857 5.864 2.857a1.46 1.46 0 0 0 1.161-.552c.8-.97.663-3.174.4-4.878a5.773 5.773 0 0 0 2.2 0c-.26 1.7-.395 3.908.4 4.878a1.46 1.46 0 0 0 1.161.552c1.515 0 4.094-1.61 5.864-2.857a6 6 0 0 0 .9 1.411l-.845.438c-2.166 1.118-4.212 2.174-6.054 3.357a4.61 4.61 0 0 0-1.166.991 2.272 2.272 0 0 0-.169 2.676z" transform="translate(-.93 -.988)" style="fill:#414141"/>
            </g>
        </g>
    </g>
</svg>
