<svg xmlns="http://www.w3.org/2000/svg" width="38" height="38" viewBox="0 0 38 38">
    <path id="prefix__global" d="M19 0a19 19 0 1 0 19 19A19 19 0 0 0 19 0zm16.432 25.656l-5.4.932a28.353 28.353 0 0 0 .994-6.955h5.694a17.616 17.616 0 0 1-1.285 6.023zm-34.15-6.023h5.695a28.354 28.354 0 0 0 .994 6.955l-5.4-.932a17.616 17.616 0 0 1-1.285-6.023zm1.285-7.29l5.4-.932a28.353 28.353 0 0 0-.994 6.955H1.282a17.616 17.616 0 0 1 1.285-6.023zm17.066-2.175a43.569 43.569 0 0 1 6.789.62l2.236.386a27.185 27.185 0 0 1 1.1 7.192H19.633zm7.005-.628a44.893 44.893 0 0 0-7.005-.64V1.3c3.631.349 6.785 3.673 8.572 8.511zm-8.271-.64a44.885 44.885 0 0 0-7 .638l-1.568.271c1.787-4.839 4.941-8.165 8.572-8.512zm-6.789 1.887a43.558 43.558 0 0 1 6.789-.62v8.2H8.243a27.186 27.186 0 0 1 1.1-7.192zm-3.335 8.846h10.124v8.2a43.569 43.569 0 0 1-6.789-.62l-2.236-.386a27.185 27.185 0 0 1-1.1-7.192zm3.118 8.826a45.044 45.044 0 0 0 7.005.642v7.6c-3.631-.349-6.785-3.674-8.572-8.512zm8.272.642a45.039 45.039 0 0 0 7-.642l1.568-.271c-1.787 4.839-4.941 8.165-8.572 8.512zm6.789-1.89a43.558 43.558 0 0 1-6.789.62v-8.2h10.124a27.186 27.186 0 0 1-1.1 7.192zm4.6-8.844a28.354 28.354 0 0 0-.994-6.955l5.4.932a17.616 17.616 0 0 1 1.285 6.023zm3.768-7.419l-5.18-.894a17.465 17.465 0 0 0-5.039-7.885 17.817 17.817 0 0 1 10.218 8.779zM13.427 2.169a17.465 17.465 0 0 0-5.039 7.885l-5.18.894a17.818 17.818 0 0 1 10.219-8.779zM3.208 27.052l5.18.894a17.465 17.465 0 0 0 5.039 7.885 17.817 17.817 0 0 1-10.219-8.779zm21.365 8.779a17.465 17.465 0 0 0 5.039-7.885l5.18-.894a17.818 17.818 0 0 1-10.218 8.779zm0 0" style="fill:#414141"/>
</svg>
